solid OpenSCAD_Model
  facet normal -1 0 0
    outer loop
      vertex -60 -12.5 0
      vertex -60 -12.5 10
      vertex -60 12.5 0
    endloop
  endfacet
  facet normal -1 0 0
    outer loop
      vertex -60 12.5 0
      vertex -60 -12.5 10
      vertex -60 12.5 10
    endloop
  endfacet
  facet normal 0 -1 0
    outer loop
      vertex 50 -12.5 0
      vertex 60 -12.5 0
      vertex -60 -12.5 10
    endloop
  endfacet
  facet normal 0 -1 0
    outer loop
      vertex -60 -12.5 10
      vertex -60 -12.5 0
      vertex -50 -12.5 0
    endloop
  endfacet
  facet normal 0 -1 0
    outer loop
      vertex 50 -12.5 -10
      vertex -60 -12.5 10
      vertex -50 -12.5 0
    endloop
  endfacet
  facet normal 0 -1 0
    outer loop
      vertex -50 -12.5 -10
      vertex 50 -12.5 -10
      vertex -50 -12.5 0
    endloop
  endfacet
  facet normal 0 -1 0
    outer loop
      vertex 50 -12.5 -10
      vertex 50 -12.5 0
      vertex -60 -12.5 10
    endloop
  endfacet
  facet normal 0 -1 0
    outer loop
      vertex 60 -12.5 0
      vertex 60 -12.5 10
      vertex 1.5 -12.5 10
    endloop
  endfacet
  facet normal 0 -1 0
    outer loop
      vertex 60 -12.5 0
      vertex 1.5 -12.5 10
      vertex 1.5 -12.5 7
    endloop
  endfacet
  facet normal 0 -1 0
    outer loop
      vertex 60 -12.5 0
      vertex -1.5 -12.5 7
      vertex -60 -12.5 10
    endloop
  endfacet
  facet normal 0 -1 0
    outer loop
      vertex 60 -12.5 0
      vertex 1.5 -12.5 7
      vertex -1.5 -12.5 7
    endloop
  endfacet
  facet normal 0 -1 0
    outer loop
      vertex -1.5 -12.5 7
      vertex -1.5 -12.5 10
      vertex -60 -12.5 10
    endloop
  endfacet
  facet normal 0 0 -1
    outer loop
      vertex -50 12.5 0
      vertex -50 -12.5 0
      vertex -60 12.5 0
    endloop
  endfacet
  facet normal 0 0 -1
    outer loop
      vertex -60 12.5 0
      vertex -50 -12.5 0
      vertex -60 -12.5 0
    endloop
  endfacet
  facet normal 0 1 0
    outer loop
      vertex -60 12.5 0
      vertex -60 12.5 10
      vertex -50 12.5 0
    endloop
  endfacet
  facet normal 0 1 0
    outer loop
      vertex -50 12.5 0
      vertex -60 12.5 10
      vertex -1.5 12.5 10
    endloop
  endfacet
  facet normal 0 1 0
    outer loop
      vertex -50 12.5 0
      vertex -1.5 12.5 10
      vertex -1.5 12.5 7
    endloop
  endfacet
  facet normal 0 1 0
    outer loop
      vertex -50 12.5 0
      vertex -1.5 12.5 7
      vertex 1.5 12.5 7
    endloop
  endfacet
  facet normal 0 1 0
    outer loop
      vertex 1.5 12.5 7
      vertex 1.5 12.5 10
      vertex 60 12.5 10
    endloop
  endfacet
  facet normal 0 1 0
    outer loop
      vertex 1.5 12.5 7
      vertex 60 12.5 10
      vertex -50 12.5 0
    endloop
  endfacet
  facet normal 0 1 0
    outer loop
      vertex 50 12.5 0
      vertex 60 12.5 10
      vertex 60 12.5 0
    endloop
  endfacet
  facet normal 0 1 0
    outer loop
      vertex -50 12.5 0
      vertex 60 12.5 10
      vertex 50 12.5 0
    endloop
  endfacet
  facet normal 0 1 0
    outer loop
      vertex 50 12.5 0
      vertex 50 12.5 -10
      vertex -50 12.5 0
    endloop
  endfacet
  facet normal 0 1 0
    outer loop
      vertex -50 12.5 0
      vertex 50 12.5 -10
      vertex -50 12.5 -10
    endloop
  endfacet
  facet normal 0 0 1
    outer loop
      vertex -60 12.5 10
      vertex -60 -12.5 10
      vertex -1.5 -12.5 10
    endloop
  endfacet
  facet normal 0 0 1
    outer loop
      vertex -1.5 12.5 10
      vertex -60 12.5 10
      vertex -1.5 -12.5 10
    endloop
  endfacet
  facet normal 1 0 0
    outer loop
      vertex -1.5 12.5 7
      vertex -1.5 12.5 10
      vertex -1.5 -12.5 10
    endloop
  endfacet
  facet normal 1 0 0
    outer loop
      vertex -1.5 -12.5 7
      vertex -1.5 12.5 7
      vertex -1.5 -12.5 10
    endloop
  endfacet
  facet normal 0 0 1
    outer loop
      vertex 1.5 -12.5 7
      vertex 1.5 12.5 7
      vertex -1.5 12.5 7
    endloop
  endfacet
  facet normal 0 0 1
    outer loop
      vertex -1.5 -12.5 7
      vertex 1.5 -12.5 7
      vertex -1.5 12.5 7
    endloop
  endfacet
  facet normal -1 0 0
    outer loop
      vertex 1.5 12.5 10
      vertex 1.5 12.5 7
      vertex 1.5 -12.5 10
    endloop
  endfacet
  facet normal -1 0 0
    outer loop
      vertex 1.5 -12.5 10
      vertex 1.5 12.5 7
      vertex 1.5 -12.5 7
    endloop
  endfacet
  facet normal 0 0 1
    outer loop
      vertex 1.5 12.5 10
      vertex 1.5 -12.5 10
      vertex 60 -12.5 10
    endloop
  endfacet
  facet normal 0 0 1
    outer loop
      vertex 60 12.5 10
      vertex 1.5 12.5 10
      vertex 60 -12.5 10
    endloop
  endfacet
  facet normal 1 0 0
    outer loop
      vertex 60 -12.5 10
      vertex 60 -12.5 0
      vertex 60 12.5 0
    endloop
  endfacet
  facet normal 1 0 0
    outer loop
      vertex 60 12.5 10
      vertex 60 -12.5 10
      vertex 60 12.5 0
    endloop
  endfacet
  facet normal 0 0 -1
    outer loop
      vertex 60 12.5 0
      vertex 60 -12.5 0
      vertex 50 12.5 0
    endloop
  endfacet
  facet normal 0 0 -1
    outer loop
      vertex 50 12.5 0
      vertex 60 -12.5 0
      vertex 50 -12.5 0
    endloop
  endfacet
  facet normal 1 0 0
    outer loop
      vertex 50 12.5 -10
      vertex 50 12.5 0
      vertex 50 -12.5 0
    endloop
  endfacet
  facet normal 1 0 0
    outer loop
      vertex 50 -12.5 -10
      vertex 50 12.5 -10
      vertex 50 -12.5 0
    endloop
  endfacet
  facet normal 0 0 -1
    outer loop
      vertex -50 -12.5 -10
      vertex -50 12.5 -10
      vertex 50 -12.5 -10
    endloop
  endfacet
  facet normal 0 0 -1
    outer loop
      vertex 50 -12.5 -10
      vertex -50 12.5 -10
      vertex 50 12.5 -10
    endloop
  endfacet
  facet normal -1 0 0
    outer loop
      vertex -50 12.5 0
      vertex -50 12.5 -10
      vertex -50 -12.5 0
    endloop
  endfacet
  facet normal -1 0 0
    outer loop
      vertex -50 -12.5 0
      vertex -50 12.5 -10
      vertex -50 -12.5 -10
    endloop
  endfacet
endsolid OpenSCAD_Model
