solid OpenSCAD_Model
  facet normal -1 0 0
    outer loop
      vertex -70 -60 -70
      vertex -70 -60 0
      vertex -70 60 -70
    endloop
  endfacet
  facet normal -1 0 0
    outer loop
      vertex -70 60 -70
      vertex -70 -60 0
      vertex -70 60 0
    endloop
  endfacet
  facet normal 0 -1 0
    outer loop
      vertex 50 -60 -67
      vertex -70 -60 -70
      vertex 70 -60 -70
    endloop
  endfacet
  facet normal 0 -1 0
    outer loop
      vertex -50 -60 -67
      vertex -50 -60 0
      vertex -70 -60 0
    endloop
  endfacet
  facet normal 0 -1 0
    outer loop
      vertex 70 -60 0
      vertex 50 -60 0
      vertex 70 -60 -70
    endloop
  endfacet
  facet normal 0 -1 0
    outer loop
      vertex -50 -60 -67
      vertex -70 -60 -70
      vertex 50 -60 -67
    endloop
  endfacet
  facet normal 0 -1 0
    outer loop
      vertex -70 -60 0
      vertex -70 -60 -70
      vertex -50 -60 -67
    endloop
  endfacet
  facet normal 0 -1 0
    outer loop
      vertex 50 -60 0
      vertex 50 -60 -67
      vertex 70 -60 -70
    endloop
  endfacet
  facet normal 0 0 -1
    outer loop
      vertex -70 -60 -70
      vertex -70 60 -70
      vertex 70 -60 -70
    endloop
  endfacet
  facet normal 0 0 -1
    outer loop
      vertex 70 -60 -70
      vertex -70 60 -70
      vertex 70 60 -70
    endloop
  endfacet
  facet normal 0 1 0
    outer loop
      vertex -70 60 -70
      vertex -70 60 0
      vertex -50 60 -67
    endloop
  endfacet
  facet normal 0 1 0
    outer loop
      vertex -70 60 -70
      vertex -50 60 -67
      vertex 70 60 -70
    endloop
  endfacet
  facet normal 0 1 0
    outer loop
      vertex 50 60 0
      vertex 70 60 -70
      vertex 50 60 -67
    endloop
  endfacet
  facet normal 0 1 0
    outer loop
      vertex -50 60 -67
      vertex 50 60 -67
      vertex 70 60 -70
    endloop
  endfacet
  facet normal 0 1 0
    outer loop
      vertex 70 60 -70
      vertex 50 60 0
      vertex 70 60 0
    endloop
  endfacet
  facet normal 0 1 0
    outer loop
      vertex -50 60 -67
      vertex -70 60 0
      vertex -50 60 0
    endloop
  endfacet
  facet normal 0 0 1
    outer loop
      vertex -70 60 0
      vertex -70 -60 0
      vertex -50 -60 0
    endloop
  endfacet
  facet normal 0 0 1
    outer loop
      vertex -50 60 0
      vertex -70 60 0
      vertex -50 -60 0
    endloop
  endfacet
  facet normal 1 0 0
    outer loop
      vertex -50 -60 0
      vertex -50 -60 -67
      vertex -50 60 -67
    endloop
  endfacet
  facet normal 1 0 0
    outer loop
      vertex -50 60 0
      vertex -50 -60 0
      vertex -50 60 -67
    endloop
  endfacet
  facet normal 0 0 1
    outer loop
      vertex -50 60 -67
      vertex -50 -60 -67
      vertex 50 -60 -67
    endloop
  endfacet
  facet normal 0 0 1
    outer loop
      vertex 50 60 -67
      vertex -50 60 -67
      vertex 50 -60 -67
    endloop
  endfacet
  facet normal -1 0 0
    outer loop
      vertex 50 -60 -67
      vertex 50 -60 0
      vertex 50 60 -67
    endloop
  endfacet
  facet normal -1 0 0
    outer loop
      vertex 50 60 -67
      vertex 50 -60 0
      vertex 50 60 0
    endloop
  endfacet
  facet normal 0 0 1
    outer loop
      vertex 50 60 0
      vertex 50 -60 0
      vertex 70 -60 0
    endloop
  endfacet
  facet normal 0 0 1
    outer loop
      vertex 70 60 0
      vertex 50 60 0
      vertex 70 -60 0
    endloop
  endfacet
  facet normal 1 0 0
    outer loop
      vertex 70 -60 0
      vertex 70 -60 -70
      vertex 70 60 -70
    endloop
  endfacet
  facet normal 1 0 0
    outer loop
      vertex 70 60 0
      vertex 70 -60 0
      vertex 70 60 -70
    endloop
  endfacet
endsolid OpenSCAD_Model
